<svg width="32" height="32" xmlns="http://www.w3.org/2000/svg">

 <g>
  <title>background</title>
  <rect fill="none" id="canvas_background" height="402" width="582" y="-1" x="-1"/>
 </g>
 <g>
  <title>Layer 1</title>
  <path id="svg_1" fill="#ffe6e2" d="m26,32l-20,0c-3.314,0 -6,-2.686 -6,-6l0,-20c0,-3.314 2.686,-6 6,-6l20,0c3.314,0 6,2.686 6,6l0,20c0,3.314 -2.686,6 -6,6z"/>
  <path id="svg_2" fill="#fd907e" d="m16,8.333c-4.42,0 -8,3.52 -8,7.861c0,3.474 2.292,6.42 5.47,7.458c0.4,0.074 0.547,-0.169 0.547,-0.378c0,-0.187 -0.007,-0.681 -0.01,-1.336c-2.225,0.474 -2.695,-1.055 -2.695,-1.055c-0.364,-0.907 -0.89,-1.15 -0.89,-1.15c-0.725,-0.487 0.056,-0.478 0.056,-0.478c0.803,0.055 1.225,0.81 1.225,0.81c0.713,1.202 1.873,0.855 2.33,0.654c0.072,-0.508 0.278,-0.855 0.507,-1.051c-1.777,-0.197 -3.644,-0.873 -3.644,-3.885c0,-0.858 0.31,-1.559 0.823,-2.109c-0.09,-0.198 -0.36,-0.998 0.07,-2.081c0,0 0.67,-0.211 2.2,0.806c0.64,-0.175 1.32,-0.261 2,-0.265c0.68,0.004 1.36,0.09 2,0.265c1.52,-1.017 2.19,-0.806 2.19,-0.806c0.43,1.083 0.16,1.882 0.08,2.081c0.51,0.55 0.82,1.251 0.82,2.109c0,3.02 -1.87,3.685 -3.65,3.878c0.28,0.236 0.54,0.718 0.54,1.454c0,1.052 -0.01,1.897 -0.01,2.153c0,0.206 0.14,0.452 0.55,0.373c3.201,-1.03 5.491,-3.978 5.491,-7.446c0,-4.342 -3.582,-7.862 -8,-7.862z"/>
 </g>
</svg>