<svg width="32" height="32" xmlns="http://www.w3.org/2000/svg">

 <g>
  <title>background</title>
  <rect fill="none" id="canvas_background" height="3.999999" width="3.999999" y="-1" x="-1"/>
 </g>
 <g>
  <title>Layer 1</title>
  <path id="svg_1" fill="#ffe6e2" d="m26,32l-20,0c-3.314,0 -6,-2.686 -6,-6l0,-20c0,-3.314 2.686,-6 6,-6l20,0c3.314,0 6,2.686 6,6l0,20c0,3.314 -2.686,6 -6,6z"/>
  <path id="svg_2" fill="#fd907e" d="m23.996,24l0.004,-0.001l0,-5.868c0,-2.871 -0.618,-5.082 -3.974,-5.082c-1.613,0 -2.696,0.885 -3.138,1.725l-0.046,0l0,-1.457l-3.182,0l0,10.682l3.314,0l0,-5.289c0,-1.393 0.264,-2.739 1.989,-2.739c1.699,0 1.725,1.589 1.725,2.829l0,5.2l3.308,0z"/>
  <g id="svg_3" fill="#fc573b">
   <path fill="#fd907e" id="svg_4" d="m8.264,13.318l3.317,0l0,10.682l-3.317,0l0,-10.682z"/>
   <path fill="#fd907e" id="svg_5" d="m9.921,8c-1.06,0 -1.921,0.861 -1.921,1.921c0,1.061 0.861,1.939 1.921,1.939s1.921,-0.878 1.921,-1.939c0,-1.06 -0.861,-1.921 -1.921,-1.921z"/>
  </g>
 </g>
</svg>