<?xml version="1.0" encoding="UTF-8" standalone="no"?>
<!DOCTYPE svg PUBLIC "-//W3C//DTD SVG 1.1//EN" "http://www.w3.org/Graphics/SVG/1.1/DTD/svg11.dtd">
<svg version="1.1" xmlns="http://www.w3.org/2000/svg" xmlns:xlink="http://www.w3.org/1999/xlink" preserveAspectRatio="xMidYMid meet" viewBox="0 0 1000 500" width="1000" height="500"><defs><path d="M114.98 247.12C114.98 260.91 103.78 272.12 89.98 272.12C76.18 272.12 64.98 260.91 64.98 247.12C64.98 233.32 76.18 222.12 89.98 222.12C103.78 222.12 114.98 233.32 114.98 247.12Z" id="a1s4Guso5R"></path><path d="M63.73 205.87C63.73 219.66 52.53 230.87 38.73 230.87C24.93 230.87 13.73 219.66 13.73 205.87C13.73 192.07 24.93 180.87 38.73 180.87C52.53 180.87 63.73 192.07 63.73 205.87Z" id="e2e572W5s"></path><path d="M965.46 180.87C965.46 194.66 954.26 205.87 940.46 205.87C926.66 205.87 915.46 194.66 915.46 180.87C915.46 167.07 926.66 155.87 940.46 155.87C954.26 155.87 965.46 167.07 965.46 180.87Z" id="b37sOxNPw0"></path><path d="M927.03 130.87C927.03 144.66 915.83 155.87 902.03 155.87C888.23 155.87 877.03 144.66 877.03 130.87C877.03 117.07 888.23 105.87 902.03 105.87C915.83 105.87 927.03 117.07 927.03 130.87Z" id="a2VMxrnpjP"></path><path d="M75.15 369.13C75.15 382.93 86.36 394.13 100.15 394.13C113.95 394.13 125.15 382.93 125.15 369.13C125.15 355.34 113.95 344.13 100.15 344.13C86.36 344.13 75.15 355.34 75.15 369.13Z" id="i1FR4yDzEU"></path><path d="M873.28 188.51C873.28 195.41 878.88 201.01 885.78 201.01C892.68 201.01 898.28 195.41 898.28 188.51C898.28 181.61 892.68 176.01 885.78 176.01C878.88 176.01 873.28 181.61 873.28 188.51Z" id="i8sAfFBB2F"></path><path d="M63.73 299.62C63.73 306.51 58.13 312.12 51.23 312.12C44.33 312.12 38.73 306.51 38.73 299.62C38.73 292.72 44.33 287.12 51.23 287.12C58.13 287.12 63.73 292.72 63.73 299.62Z" id="a2AMRRuUCo"></path></defs><g><g><g><g></g><use xlink:href="#a1s4Guso5R" opacity="1" fill="#ffffff" fill-opacity="0"></use><g><use xlink:href="#a1s4Guso5R" opacity="1" fill-opacity="0" stroke="#1ec6c4" stroke-width="4" stroke-opacity="1"></use></g></g><g><g></g><use xlink:href="#e2e572W5s" opacity="1" fill="#ffffff" fill-opacity="0"></use><g><use xlink:href="#e2e572W5s" opacity="1" fill-opacity="0" stroke="#2d5e80" stroke-width="4" stroke-opacity="1"></use></g></g><g><g></g><use xlink:href="#b37sOxNPw0" opacity="1" fill="#ffffff" fill-opacity="0"></use><g><use xlink:href="#b37sOxNPw0" opacity="1" fill-opacity="0" stroke="#64b2e9" stroke-width="4" stroke-opacity="1"></use></g></g><g><g></g><use xlink:href="#a2VMxrnpjP" opacity="1" fill="#ffffff" fill-opacity="0"></use><g><use xlink:href="#a2VMxrnpjP" opacity="1" fill-opacity="0" stroke="#1ec6c4" stroke-width="4" stroke-opacity="1"></use></g></g><g><g></g><use xlink:href="#i1FR4yDzEU" opacity="1" fill="#ffffff" fill-opacity="0"></use><g><use xlink:href="#i1FR4yDzEU" opacity="1" fill-opacity="0" stroke="#5b6db4" stroke-width="4" stroke-opacity="1"></use></g></g><g><g></g><use xlink:href="#i8sAfFBB2F" opacity="1" fill="#ffffff" fill-opacity="0"></use><g><use xlink:href="#i8sAfFBB2F" opacity="1" fill-opacity="0" stroke="#5b6db4" stroke-width="4" stroke-opacity="1"></use></g></g><g><g></g><use xlink:href="#a2AMRRuUCo" opacity="1" fill="#ffffff" fill-opacity="0"></use><g><use xlink:href="#a2AMRRuUCo" opacity="1" fill-opacity="0" stroke="#64b2e9" stroke-width="4" stroke-opacity="1"></use></g></g></g></g></svg>