<svg width="477.867" height="477.867" xmlns="http://www.w3.org/2000/svg">

 <g>
  <title>background</title>
  <rect fill="none" id="canvas_background" height="402" width="582" y="-1" x="-1"/>
 </g>
 <g>
  <title>Layer 1</title>
  <g id="svg_1">
   <g id="svg_2">
    <path fill="#d4591d" id="svg_3" d="m443.733,307.2c-9.426,0 -17.067,7.641 -17.067,17.067l0,102.4c0,9.426 -7.641,17.067 -17.067,17.067l-341.332,0c-9.426,0 -17.067,-7.641 -17.067,-17.067l0,-102.4c0,-9.426 -7.641,-17.067 -17.067,-17.067s-17.067,7.641 -17.067,17.067l0,102.4c0,28.277 22.923,51.2 51.2,51.2l341.334,0c28.277,0 51.2,-22.923 51.2,-51.2l0,-102.4c0,-9.426 -7.641,-17.067 -17.067,-17.067z"/>
   </g>
  </g>
  <g id="svg_4">
   <g id="svg_5">
    <path fill="#d4591d" id="svg_6" d="m335.947,295.134c-6.614,-6.387 -17.099,-6.387 -23.712,0l-56.235,56.2l0,-334.267c0,-9.426 -7.641,-17.067 -17.067,-17.067s-17.067,7.641 -17.067,17.067l0,334.268l-56.201,-56.201c-6.78,-6.548 -17.584,-6.36 -24.132,0.419c-6.388,6.614 -6.388,17.099 0,23.713l85.333,85.333c6.657,6.673 17.463,6.687 24.136,0.031c0.01,-0.01 0.02,-0.02 0.031,-0.031l85.333,-85.333c6.549,-6.78 6.361,-17.584 -0.419,-24.132z"/>
   </g>
  </g>
  <g id="svg_7"/>
  <g id="svg_8"/>
  <g id="svg_9"/>
  <g id="svg_10"/>
  <g id="svg_11"/>
  <g id="svg_12"/>
  <g id="svg_13"/>
  <g id="svg_14"/>
  <g id="svg_15"/>
  <g id="svg_16"/>
  <g id="svg_17"/>
  <g id="svg_18"/>
  <g id="svg_19"/>
  <g id="svg_20"/>
  <g id="svg_21"/>
 </g>
</svg>