<svg width="400" height="401" xmlns="http://www.w3.org/2000/svg" version="1.1">
 <g>
  <title>Layer 1</title>
  <g id="svgg">
   <path id="path0" d="m61.5,0.292c-1.265,0.081 -2.3,0.319 -2.3,0.528c0,0.209 -0.594,0.38 -1.32,0.38c-0.726,0 -1.491,0.171 -1.701,0.381c-0.209,0.209 -1.044,0.425 -1.854,0.48c-0.81,0.054 -1.384,0.243 -1.276,0.419c0.109,0.176 -0.453,0.32 -1.249,0.32c-0.863,0 -1.347,0.161 -1.2,0.4c0.147,0.238 -0.329,0.4 -1.176,0.4c-0.783,0 -1.425,0.135 -1.427,0.3c-0.004,0.339 -1.923,1.3 -2.597,1.3c-0.674,0 -2.593,0.961 -2.597,1.3c-0.002,0.165 -0.363,0.3 -0.803,0.3c-0.44,0 -0.801,0.135 -0.803,0.3c-0.004,0.359 -1.941,1.3 -2.677,1.3c-0.286,0 -0.52,0.18 -0.52,0.4c0,0.22 -0.135,0.379 -0.3,0.353c-0.738,-0.117 -1.253,0.113 -2.338,1.047c-0.639,0.549 -1.387,0.999 -1.662,1c-0.275,0 -0.5,0.18 -0.5,0.4c0,0.22 -0.32,0.4 -0.712,0.4c-0.391,0 -0.971,0.36 -1.288,0.8c-0.317,0.44 -0.798,0.8 -1.068,0.8c-0.271,0 -0.676,0.315 -0.9,0.7c-0.224,0.385 -0.413,0.558 -0.42,0.384c-0.007,-0.173 -0.263,-0.083 -0.57,0.2c-0.307,0.284 -0.484,0.638 -0.394,0.787c0.09,0.149 -0.204,0.388 -0.653,0.531c-1.133,0.359 -13.235,12.579 -12.489,12.61c0.162,0.007 -0.021,0.196 -0.406,0.42c-0.385,0.224 -0.7,0.669 -0.7,0.988c0,0.319 -0.18,0.58 -0.4,0.58c-0.22,0 -0.4,0.32 -0.4,0.712c0,0.391 -0.35,0.964 -0.779,1.273c-0.428,0.308 -0.699,0.689 -0.602,0.846c0.097,0.157 -0.093,0.388 -0.421,0.515c-0.329,0.126 -0.598,0.505 -0.598,0.841c0,0.337 -0.168,0.613 -0.373,0.613c-0.38,0 -1.05,1.554 -0.906,2.1c0.043,0.165 -0.101,0.3 -0.321,0.3c-0.22,0 -0.4,0.36 -0.4,0.8c0,0.44 -0.18,0.8 -0.4,0.8c-0.22,0 -0.4,0.36 -0.4,0.8c0,0.44 -0.18,0.8 -0.4,0.8c-0.22,0 -0.4,0.36 -0.4,0.8c0,0.44 -0.18,0.8 -0.4,0.8c-0.22,0 -0.4,0.36 -0.4,0.8c0,0.44 -0.18,0.8 -0.4,0.8c-0.22,0 -0.4,0.45 -0.4,1c0,0.55 -0.18,1 -0.4,1c-0.22,0 -0.4,0.36 -0.4,0.8c0,0.44 -0.18,0.8 -0.4,0.8c-0.22,0 -0.4,0.641 -0.4,1.424c0,0.847 -0.162,1.323 -0.4,1.176c-0.239,-0.147 -0.4,0.337 -0.4,1.2c0,0.796 -0.144,1.358 -0.32,1.249c-0.176,-0.108 -0.364,0.466 -0.417,1.277c-0.054,0.811 -0.27,1.534 -0.481,1.607c-0.21,0.074 -0.382,0.824 -0.382,1.667c0,0.871 -0.216,1.605 -0.5,1.7c-0.7,0.233 -0.74,280.98 -0.04,281.415c0.253,0.157 0.519,0.915 0.591,1.685c0.073,0.77 0.262,1.495 0.422,1.612c0.16,0.117 0.335,0.882 0.39,1.7c0.055,0.818 0.244,1.488 0.419,1.488c0.175,0 0.318,0.54 0.318,1.2c0,0.66 0.18,1.2 0.4,1.2c0.22,0 0.4,0.54 0.4,1.2c0,0.66 0.18,1.2 0.4,1.2c0.22,0 0.4,0.36 0.4,0.8c0,0.44 0.18,0.8 0.4,0.8c0.22,0 0.4,0.272 0.4,0.605c0,0.333 0.168,0.918 0.374,1.3c0.205,0.382 0.609,1.28 0.897,1.995c0.289,0.715 0.66,1.3 0.827,1.3c0.166,0 0.302,0.36 0.302,0.8c0,0.44 0.18,0.8 0.4,0.8c0.22,0 0.4,0.36 0.4,0.8c0,0.44 0.18,0.8 0.4,0.8c0.22,0 0.381,0.135 0.357,0.3c-0.081,0.562 0.535,2.1 0.841,2.1c0.168,0 0.523,0.527 0.79,1.171c0.267,0.644 0.75,1.273 1.074,1.397c0.324,0.125 0.477,0.408 0.34,0.629c-0.137,0.222 -0.059,0.403 0.174,0.403c0.233,0 0.424,0.27 0.424,0.6c0,0.33 0.18,0.6 0.4,0.6c0.22,0 0.4,0.25 0.4,0.555c0,0.306 0.799,1.366 1.776,2.357c0.977,0.991 1.684,1.895 1.57,2.009c-0.113,0.113 0.167,0.325 0.624,0.469c0.456,0.145 0.83,0.442 0.83,0.659c0,0.218 1.791,2.14 3.981,4.273c5.435,5.294 6.056,5.827 8.067,6.923c0.964,0.525 2.043,1.27 2.399,1.655c0.356,0.385 0.851,0.7 1.1,0.7c0.249,0 0.453,0.191 0.453,0.424c0,0.233 0.181,0.311 0.403,0.174c0.221,-0.137 0.51,0.032 0.642,0.374c0.131,0.343 0.38,0.536 0.552,0.43c0.172,-0.106 0.533,0.073 0.803,0.398c0.27,0.325 0.65,0.493 0.845,0.372c0.195,-0.121 0.355,-0.029 0.355,0.204c0,0.233 0.36,0.424 0.8,0.424c0.44,0 0.8,0.18 0.8,0.4c0,0.22 0.36,0.4 0.8,0.4c0.44,0 0.8,0.18 0.8,0.4c0,0.22 0.36,0.4 0.8,0.4c0.44,0 0.8,0.18 0.8,0.4c0,0.22 0.36,0.4 0.8,0.4c0.44,0 0.8,0.18 0.8,0.4c0,0.22 0.45,0.4 1,0.4c0.55,0 1,0.18 1,0.4c0,0.22 0.461,0.4 1.024,0.4c0.563,0 0.936,0.142 0.828,0.315c-0.107,0.173 0.288,0.355 0.877,0.404c0.589,0.048 1.131,0.266 1.204,0.484c0.074,0.219 0.648,0.397 1.277,0.397c0.628,0 1.254,0.18 1.39,0.4c0.136,0.22 0.867,0.4 1.624,0.4c0.757,0 1.376,0.18 1.376,0.4c0,0.22 0.72,0.4 1.6,0.4c0.88,0 1.6,0.148 1.6,0.329c0,0.643 5.773,0.671 140.8,0.671c135.027,0 140.8,-0.028 140.8,-0.671c0,-0.181 0.619,-0.329 1.376,-0.329c0.757,0 1.488,-0.18 1.624,-0.4c0.136,-0.22 0.777,-0.4 1.424,-0.4c0.647,0 1.176,-0.18 1.176,-0.4c0,-0.22 0.72,-0.4 1.6,-0.4c0.88,0 1.6,-0.18 1.6,-0.4c0,-0.22 0.551,-0.4 1.224,-0.4c0.713,0 1.12,-0.167 0.976,-0.4c-0.14,-0.227 0.196,-0.4 0.776,-0.4c0.563,0 1.024,-0.18 1.024,-0.4c0,-0.22 0.272,-0.4 0.605,-0.4c0.333,0 0.918,-0.168 1.3,-0.374c0.382,-0.205 1.28,-0.609 1.995,-0.897c0.715,-0.289 1.3,-0.66 1.3,-0.827c0,-0.166 0.36,-0.302 0.8,-0.302c0.44,0 0.8,-0.18 0.8,-0.4c0,-0.22 0.287,-0.4 0.638,-0.4c0.694,0 2.825,-1.099 3.683,-1.9c0.295,-0.275 0.675,-0.5 0.845,-0.5c0.17,0 0.833,-0.45 1.472,-1c0.639,-0.549 1.387,-0.999 1.662,-1c0.275,0 0.5,-0.18 0.5,-0.4c0,-0.22 0.225,-0.401 0.5,-0.402c1.26,-0.006 15.997,-14.602 16.661,-16.502c0.088,-0.253 0.493,-0.817 0.9,-1.253c0.406,-0.437 0.739,-1.03 0.739,-1.318c0,-0.289 0.18,-0.525 0.4,-0.525c0.22,0 0.4,-0.236 0.4,-0.525c0,-0.288 0.324,-0.873 0.72,-1.3c0.768,-0.827 1.448,-2.181 1.344,-2.675c-0.035,-0.165 0.116,-0.3 0.336,-0.3c0.22,0 0.4,-0.36 0.4,-0.8c0,-0.44 0.18,-0.8 0.4,-0.8c0.22,0 0.4,-0.36 0.4,-0.8c0,-0.44 0.136,-0.8 0.302,-0.8c0.167,0 0.542,-0.585 0.834,-1.3c1.123,-2.75 1.368,-3.322 1.711,-3.995c0.194,-0.382 0.353,-0.977 0.353,-1.323c0,-0.346 0.142,-0.542 0.315,-0.434c0.173,0.107 0.354,-0.278 0.402,-0.854c0.048,-0.577 0.225,-1.149 0.394,-1.272c0.168,-0.122 0.364,-0.852 0.435,-1.622c0.07,-0.77 0.291,-1.46 0.491,-1.533c0.2,-0.074 0.363,-0.648 0.363,-1.277c0,-0.628 0.18,-1.254 0.4,-1.39c0.22,-0.136 0.4,-0.867 0.4,-1.624c0,-0.757 0.149,-1.376 0.332,-1.376c0.641,0 0.668,-5.74 0.668,-140.8c0,-135.06 -0.027,-140.8 -0.668,-140.8c-0.183,0 -0.332,-0.705 -0.332,-1.567c0,-0.861 -0.163,-1.626 -0.363,-1.7c-0.2,-0.073 -0.421,-0.763 -0.491,-1.533c-0.071,-0.77 -0.249,-1.49 -0.396,-1.6c-0.147,-0.11 -0.331,-0.65 -0.409,-1.2c-0.077,-0.55 -0.275,-1.1 -0.439,-1.222c-0.164,-0.123 -0.337,-0.695 -0.385,-1.272c-0.048,-0.576 -0.229,-0.961 -0.402,-0.854c-0.173,0.108 -0.315,-0.265 -0.315,-0.828c0,-0.563 -0.18,-1.024 -0.4,-1.024c-0.22,0 -0.401,-0.315 -0.401,-0.7c-0.001,-0.385 -0.361,-1.289 -0.8,-2.01c-0.44,-0.72 -0.799,-1.575 -0.799,-1.9c0,-0.324 -0.18,-0.59 -0.4,-0.59c-0.22,0 -0.4,-0.36 -0.4,-0.8c0,-0.44 -0.18,-0.8 -0.4,-0.8c-0.22,0 -0.4,-0.234 -0.4,-0.52c0,-0.76 -0.946,-2.673 -1.324,-2.677c-0.178,-0.002 -0.212,-0.183 -0.076,-0.403c0.136,-0.22 0.057,-0.4 -0.176,-0.4c-0.233,0 -0.424,-0.225 -0.424,-0.5c-0.001,-0.433 -0.46,-1.084 -2.368,-3.357c-0.211,-0.252 -0.275,-0.567 -0.141,-0.7c0.133,-0.134 0.032,-0.243 -0.224,-0.243c-0.257,0 -0.468,-0.225 -0.469,-0.5c-0.001,-0.275 -0.676,-1.276 -1.5,-2.225c-2.188,-2.52 -10.898,-11.343 -10.898,-11.04c0,0.143 -0.741,-0.482 -1.647,-1.388c-0.906,-0.906 -1.853,-1.647 -2.104,-1.647c-0.252,0 -0.931,-0.439 -1.51,-0.976c-0.579,-0.537 -1.132,-0.898 -1.228,-0.802c-0.096,0.096 -0.597,-0.274 -1.112,-0.824c-0.516,-0.549 -1.177,-0.998 -1.469,-0.998c-0.291,0 -0.53,-0.147 -0.53,-0.326c0,-0.398 -2.601,-1.674 -3.414,-1.674c-0.322,0 -0.586,-0.18 -0.586,-0.4c0,-0.22 -0.345,-0.4 -0.767,-0.4c-0.421,0 -0.826,-0.143 -0.9,-0.319c-0.18,-0.43 -3.772,-2.081 -4.529,-2.081c-0.332,0 -0.604,-0.18 -0.604,-0.4c0,-0.22 -0.36,-0.4 -0.8,-0.4c-0.44,0 -0.8,-0.18 -0.8,-0.4c0,-0.22 -0.54,-0.4 -1.2,-0.4c-0.66,0 -1.2,-0.18 -1.2,-0.4c0,-0.22 -0.54,-0.4 -1.2,-0.4c-0.66,0 -1.2,-0.143 -1.2,-0.318c0,-0.175 -0.675,-0.363 -1.5,-0.418c-0.825,-0.054 -1.56,-0.271 -1.633,-0.482c-0.074,-0.21 -0.824,-0.382 -1.667,-0.382c-0.871,0 -1.605,-0.216 -1.7,-0.5c-0.156,-0.467 -272.085,-0.865 -279.2,-0.408m143.328,100.68c1.194,0.622 2.262,1.267 2.372,1.434c0.11,0.166 6.95,4.759 15.2,10.205c8.25,5.446 15.06,10.057 15.133,10.246c0.074,0.188 0.355,0.343 0.625,0.343c0.27,0 0.84,0.315 1.267,0.7c0.426,0.385 1.27,0.955 1.875,1.268c0.605,0.312 1.1,0.717 1.1,0.9c0,0.182 0.236,0.332 0.525,0.332c0.288,0 0.881,0.333 1.318,0.739c0.436,0.407 0.975,0.812 1.197,0.9c0.827,0.329 43.565,28.928 43.693,29.238c0.074,0.178 0.355,0.323 0.625,0.323c0.27,0 0.84,0.315 1.267,0.7c0.426,0.385 1.27,0.955 1.875,1.268c0.605,0.312 1.1,0.717 1.1,0.9c0,0.182 0.236,0.332 0.525,0.332c0.818,0 4.143,3.232 5.055,4.912c0.926,1.708 1.332,67.124 0.42,67.688c-0.22,0.136 -0.4,0.519 -0.4,0.852c0,0.333 -0.266,0.871 -0.591,1.196c-0.325,0.325 -0.73,0.83 -0.9,1.123c-0.385,0.662 -5.472,4.229 -6.031,4.229c-0.226,0 -0.471,0.161 -0.545,0.357c-0.073,0.196 -6.343,4.457 -13.933,9.468c-7.59,5.012 -13.86,9.261 -13.933,9.444c-0.074,0.182 -0.344,0.331 -0.6,0.331c-0.257,0.001 -0.99,0.451 -1.629,1c-0.639,0.55 -1.286,1 -1.438,1c-0.152,0 -0.799,0.45 -1.438,1c-0.639,0.549 -1.387,0.999 -1.662,1c-0.275,0 -0.5,0.168 -0.5,0.373c0,0.205 -0.359,0.487 -0.798,0.626c-0.438,0.139 -1.023,0.47 -1.3,0.734c-0.869,0.833 -11.093,7.467 -11.507,7.467c-0.217,0 -0.395,0.15 -0.395,0.332c0,0.183 -0.495,0.588 -1.1,0.9c-0.605,0.312 -1.19,0.678 -1.3,0.814c-0.11,0.135 -5.15,3.521 -11.2,7.524c-6.05,4.002 -11.273,7.491 -11.606,7.753c-0.333,0.262 -1.098,0.732 -1.7,1.045c-0.602,0.312 -1.094,0.717 -1.094,0.9c0,0.182 -0.236,0.332 -0.525,0.332c-0.288,0 -0.873,0.315 -1.3,0.7c-0.426,0.385 -1.27,0.955 -1.875,1.268c-0.605,0.312 -1.1,0.717 -1.1,0.9c0,0.182 -0.27,0.332 -0.6,0.332c-0.33,0 -0.6,0.18 -0.6,0.4c0,0.22 -0.27,0.4 -0.6,0.4c-0.33,0 -0.6,0.145 -0.6,0.323c0,1.683 -7.794,3.486 -10.281,2.379c-1.09,-0.486 -34.121,-22.165 -34.519,-22.656c-0.11,-0.136 -0.695,-0.502 -1.3,-0.814c-0.605,-0.312 -1.1,-0.717 -1.1,-0.9c0,-0.182 -0.236,-0.332 -0.525,-0.332c-0.288,0 -0.881,-0.333 -1.318,-0.739c-0.436,-0.407 -0.966,-0.812 -1.176,-0.9c-0.863,-0.362 -43.591,-28.941 -43.714,-29.238c-0.074,-0.178 -0.355,-0.323 -0.625,-0.323c-0.27,0 -0.84,-0.315 -1.267,-0.7c-0.426,-0.385 -1.27,-0.955 -1.875,-1.268c-0.605,-0.312 -1.1,-0.717 -1.1,-0.9c0,-0.182 -0.19,-0.332 -0.422,-0.332c-1.681,0 -6.76,-4.626 -7.793,-7.097c-0.924,-2.212 -0.871,-65.315 0.057,-67.554c0.691,-1.668 4.264,-5.349 5.192,-5.349c0.311,0 0.566,-0.18 0.566,-0.4c0,-0.22 0.236,-0.4 0.525,-0.4c0.288,0 0.911,-0.36 1.383,-0.8c0.472,-0.44 1.001,-0.8 1.175,-0.8c0.174,-0.001 0.84,-0.451 1.479,-1c0.639,-0.55 1.302,-1 1.472,-1c0.17,0 0.547,-0.232 0.837,-0.514c0.291,-0.283 9.619,-6.538 20.729,-13.9c11.11,-7.363 20.26,-13.521 20.333,-13.686c0.074,-0.165 0.389,-0.3 0.7,-0.3c0.312,0 0.567,-0.18 0.567,-0.4c0,-0.22 0.225,-0.4 0.5,-0.401c0.275,0 1.13,-0.54 1.9,-1.199c0.77,-0.659 1.625,-1.199 1.9,-1.199c0.275,-0.001 0.5,-0.151 0.5,-0.333c0,-0.183 0.495,-0.588 1.1,-0.9c0.605,-0.312 1.19,-0.667 1.3,-0.79c0.579,-0.648 33.664,-22.341 34.644,-22.716c1.953,-0.746 5.371,-0.347 7.784,0.91m-14.095,24.585c-0.073,0.197 -6.883,4.813 -15.133,10.257c-8.25,5.445 -15.06,10.054 -15.133,10.243c-0.074,0.188 -0.344,0.343 -0.6,0.343c-0.257,0.001 -0.99,0.451 -1.629,1c-0.639,0.55 -1.302,1 -1.472,1c-0.17,0 -0.547,0.225 -0.837,0.5c-0.925,0.875 -11.107,7.5 -11.526,7.5c-0.222,0 -0.403,0.15 -0.403,0.332c0,0.183 -0.495,0.588 -1.1,0.9c-0.605,0.313 -1.295,0.748 -1.533,0.968c-0.238,0.22 -3.968,2.74 -8.29,5.6c-4.322,2.86 -7.861,5.29 -7.864,5.4c-0.003,0.11 6.138,4.25 13.646,9.2c7.508,4.95 13.883,9.225 14.167,9.5c0.578,0.56 2.174,0.683 2.174,0.168c0,-0.183 0.495,-0.588 1.1,-0.9c0.605,-0.313 1.449,-0.883 1.875,-1.268c0.427,-0.385 0.92,-0.7 1.096,-0.7c0.176,0 0.637,-0.257 1.024,-0.571c0.388,-0.314 7.5,-5.089 15.805,-10.61l15.1,-10.04l0,-19.59c0,-17.883 -0.059,-20.324 -0.467,-19.232m18.067,19.167l0,19.555l3.3,2.197c1.815,1.209 4.221,2.769 5.346,3.468c1.125,0.698 2.565,1.717 3.2,2.263c0.635,0.545 1.379,0.992 1.654,0.993c0.275,0 0.5,0.15 0.5,0.332c0,0.183 0.495,0.588 1.1,0.9c0.605,0.312 1.19,0.675 1.3,0.808c1.556,1.881 21.6,14.12 21.6,13.189c0,-0.204 0.237,-0.429 0.528,-0.5c0.826,-0.202 27.445,-18.097 27.354,-18.389c-0.045,-0.143 -2.602,-1.921 -5.682,-3.953c-3.08,-2.031 -5.66,-3.849 -5.733,-4.04c-0.074,-0.191 -0.355,-0.347 -0.625,-0.347c-0.27,0 -0.84,-0.315 -1.267,-0.7c-0.426,-0.385 -1.27,-0.955 -1.875,-1.268c-0.605,-0.312 -1.1,-0.717 -1.1,-0.9c0,-0.182 -0.236,-0.332 -0.525,-0.332c-0.288,0 -0.881,-0.333 -1.318,-0.739c-0.436,-0.407 -0.965,-0.812 -1.175,-0.9c-0.504,-0.212 -41.123,-27.238 -41.382,-27.534c-0.11,-0.126 -0.695,-0.483 -1.3,-0.795c-0.605,-0.312 -1.1,-0.717 -1.1,-0.9c0,-0.182 -0.236,-0.332 -0.525,-0.332c-0.288,0 -0.918,-0.367 -1.4,-0.816l-0.875,-0.815l0,19.555m-17.6,41.484c-4.29,2.945 -8.025,5.363 -8.3,5.373c-0.275,0.011 -0.5,0.169 -0.5,0.351c0,0.183 -0.495,0.588 -1.1,0.9c-0.605,0.313 -1.449,0.883 -1.875,1.268c-0.427,0.385 -1.012,0.7 -1.3,0.7c-0.289,0 -0.528,0.135 -0.531,0.3c-0.003,0.165 -1.53,1.29 -3.394,2.5c-4.115,2.672 -4.215,2.055 0.878,5.4c2.345,1.54 4.457,2.98 4.693,3.2c0.236,0.22 0.924,0.655 1.529,0.968c0.605,0.312 1.1,0.717 1.1,0.9c0,0.182 0.27,0.332 0.6,0.332c0.33,0 0.6,0.18 0.6,0.4c0,0.22 0.27,0.4 0.6,0.4c0.33,0 0.6,0.136 0.6,0.302c0,0.167 0.506,0.527 1.125,0.801c0.619,0.273 1.511,0.857 1.983,1.297c0.472,0.44 0.95,0.8 1.062,0.8c0.111,0 2.63,1.636 5.597,3.636c3.505,2.362 5.576,3.524 5.913,3.318c3.093,-1.889 13.351,-8.769 13.453,-9.022c0.074,-0.183 0.355,-0.332 0.625,-0.332c0.27,0 0.84,-0.315 1.267,-0.7c0.426,-0.385 1.27,-0.955 1.875,-1.268c0.605,-0.312 1.1,-0.717 1.1,-0.9c0,-0.182 0.27,-0.332 0.6,-0.332c0.33,0 0.6,-0.15 0.6,-0.332c0,-0.183 0.495,-0.588 1.1,-0.9c0.605,-0.313 1.449,-0.883 1.875,-1.268c0.427,-0.385 1.012,-0.7 1.3,-0.7c0.289,0 0.525,-0.15 0.525,-0.332c0,-0.183 0.495,-0.588 1.1,-0.9c0.605,-0.313 1.334,-0.789 1.62,-1.059c0.286,-0.27 0.826,-0.675 1.2,-0.9c0.64,-0.385 0.64,-0.433 0,-0.818c-0.374,-0.225 -0.914,-0.63 -1.2,-0.9c-0.286,-0.27 -1.015,-0.746 -1.62,-1.059c-0.605,-0.312 -1.1,-0.717 -1.1,-0.9c0,-0.182 -0.236,-0.332 -0.525,-0.332c-0.288,0 -0.873,-0.315 -1.3,-0.7c-0.426,-0.385 -1.27,-0.955 -1.875,-1.268c-0.605,-0.312 -1.1,-0.717 -1.1,-0.9c0,-0.182 -0.27,-0.332 -0.6,-0.332c-0.33,0 -0.6,-0.18 -0.6,-0.4c0,-0.22 -0.27,-0.4 -0.6,-0.4c-0.33,0 -0.6,-0.18 -0.6,-0.4c0,-0.22 -0.27,-0.4 -0.6,-0.4c-0.33,0 -0.6,-0.18 -0.6,-0.4c0,-0.22 -0.27,-0.4 -0.6,-0.4c-0.33,0 -0.6,-0.18 -0.6,-0.4c0,-0.22 -0.197,-0.4 -0.437,-0.4c-0.24,0 -0.849,-0.315 -1.354,-0.7c-0.504,-0.385 -1.252,-0.923 -1.663,-1.195c-0.41,-0.272 -3.032,-2.027 -5.827,-3.9c-6.342,-4.25 -5.428,-4.374 -14.719,2.003m-73.6,13.792c0,7.26 0.062,13.2 0.139,13.2c0.434,0 2.652,-1.307 3.068,-1.808c0.27,-0.326 0.739,-0.592 1.042,-0.592c0.303,0 0.551,-0.18 0.551,-0.4c0,-0.22 0.236,-0.4 0.525,-0.4c0.288,0 0.911,-0.36 1.383,-0.8c0.472,-0.44 1.001,-0.8 1.175,-0.8c0.174,-0.001 0.84,-0.451 1.479,-1c0.639,-0.55 1.287,-1 1.439,-1c0.152,0 0.668,-0.339 1.146,-0.754c0.477,-0.414 2.482,-1.809 4.454,-3.1c4.336,-2.836 4.382,-2.227 -0.401,-5.346c-2.193,-1.43 -3.99,-2.735 -3.993,-2.9c-0.004,-0.165 -0.243,-0.3 -0.532,-0.3c-0.288,0 -0.873,-0.315 -1.3,-0.7c-0.426,-0.385 -1.27,-0.955 -1.875,-1.268c-0.605,-0.312 -1.1,-0.717 -1.1,-0.9c0,-0.182 -0.188,-0.332 -0.418,-0.332c-0.23,0 -1.752,-0.9 -3.382,-2c-1.63,-1.1 -3.062,-2 -3.182,-2c-0.12,0 -0.218,5.94 -0.218,13.2m161.4,-11.2c-1.54,1.077 -3.025,1.967 -3.3,1.979c-0.275,0.011 -0.5,0.171 -0.5,0.353c0,0.183 -0.495,0.588 -1.1,0.9c-0.605,0.312 -1.19,0.673 -1.3,0.803c-0.11,0.13 -2.405,1.709 -5.1,3.508c-2.695,1.8 -4.9,3.446 -4.9,3.657c0,0.211 2.205,1.857 4.9,3.658c2.695,1.8 4.96,3.423 5.033,3.607c0.074,0.184 0.355,0.335 0.625,0.335c0.27,0 0.84,0.315 1.267,0.7c0.426,0.385 1.27,0.955 1.875,1.268c0.605,0.312 1.1,0.717 1.1,0.9c0,0.182 0.236,0.332 0.525,0.332c0.288,0 0.882,0.315 1.32,0.7c0.833,0.733 2.397,1.7 2.75,1.7c0.113,0 0.205,-5.94 0.205,-13.2c0,-7.26 -0.135,-13.19 -0.3,-13.179c-0.165,0.012 -1.56,0.902 -3.1,1.979m-125.867,22.752c-0.073,0.194 -5.781,4.074 -12.684,8.623c-6.903,4.548 -12.799,8.518 -13.102,8.821c-0.304,0.303 -0.911,0.666 -1.349,0.805c-1.346,0.427 -1.009,0.727 5.827,5.185c3.644,2.377 6.839,4.522 7.1,4.768c0.261,0.245 0.97,0.701 1.575,1.014c0.605,0.312 1.1,0.717 1.1,0.9c0,0.182 0.236,0.332 0.525,0.332c0.288,0 0.873,0.315 1.3,0.7c0.426,0.385 1.27,0.955 1.875,1.268c0.605,0.312 1.1,0.717 1.1,0.9c0,0.182 0.196,0.332 0.435,0.332c0.239,0 2.669,1.53 5.399,3.4c2.731,1.87 5.13,3.4 5.332,3.4c0.202,0 0.427,0.161 0.501,0.357c0.073,0.197 6.883,4.813 15.133,10.257c8.25,5.445 15.06,10.054 15.133,10.243c0.074,0.188 0.355,0.343 0.625,0.343c0.27,0 0.885,0.367 1.367,0.816l0.875,0.815l-0.009,-19.515l-0.008,-19.516l-1.681,-1.2c-0.924,-0.66 -2.18,-1.447 -2.791,-1.75c-0.611,-0.302 -1.111,-0.686 -1.111,-0.851c0,-0.166 -0.54,-0.526 -1.2,-0.799c-0.66,-0.273 -1.2,-0.655 -1.2,-0.849c0,-0.193 -0.27,-0.351 -0.6,-0.351c-0.33,0 -0.6,-0.15 -0.6,-0.332c0,-0.183 -0.495,-0.588 -1.1,-0.9c-0.605,-0.313 -1.449,-0.883 -1.875,-1.268c-0.427,-0.385 -0.997,-0.7 -1.267,-0.7c-0.27,0 -0.551,-0.152 -0.625,-0.338c-0.073,-0.186 -4.453,-3.177 -9.733,-6.647c-5.28,-3.469 -9.69,-6.423 -9.8,-6.562c-0.11,-0.14 -0.695,-0.509 -1.3,-0.821c-0.605,-0.312 -1.1,-0.717 -1.1,-0.9c0,-0.445 -1.897,-0.427 -2.067,0.02m84.867,4.652c-4.07,2.724 -7.618,5.143 -7.885,5.376c-0.267,0.233 -0.942,0.632 -1.5,0.886c-0.558,0.254 -1.015,0.592 -1.015,0.75c0,0.158 -0.54,0.511 -1.2,0.784c-0.66,0.273 -1.2,0.655 -1.2,0.849c0,0.193 -0.236,0.351 -0.525,0.351c-0.288,0 -0.873,0.315 -1.3,0.7c-0.426,0.385 -1.27,0.955 -1.875,1.268c-0.605,0.312 -1.1,0.717 -1.1,0.9c0,0.182 -0.27,0.332 -0.6,0.332c-0.33,0 -0.604,0.135 -0.608,0.3c-0.004,0.165 -2.341,1.83 -5.192,3.7l-5.184,3.4l0.023,19.6c0.013,10.78 0.115,19.375 0.226,19.1c0.111,-0.275 0.457,-0.5 0.768,-0.5c0.312,0 0.567,-0.18 0.567,-0.4c0,-0.22 0.27,-0.4 0.6,-0.4c0.33,0 0.6,-0.15 0.6,-0.332c0,-0.183 0.495,-0.588 1.1,-0.9c0.605,-0.313 1.449,-0.883 1.875,-1.268c0.427,-0.385 0.997,-0.7 1.267,-0.7c0.27,0 0.551,-0.135 0.625,-0.3c0.073,-0.165 4.453,-3.167 9.733,-6.671c5.28,-3.503 13.801,-9.173 18.936,-12.6c5.134,-3.426 9.634,-6.409 10,-6.629c0.365,-0.22 0.754,-0.49 0.864,-0.601c0.11,-0.11 0.695,-0.455 1.3,-0.767c0.605,-0.312 1.1,-0.717 1.1,-0.9c0,-0.182 0.225,-0.332 0.5,-0.332c0.275,-0.001 1.023,-0.451 1.662,-1c0.639,-0.55 1.287,-1 1.439,-1c0.152,0 0.671,-0.342 1.154,-0.761c0.483,-0.419 3.3,-2.328 6.261,-4.242c2.961,-1.915 5.382,-3.597 5.38,-3.739c-0.003,-0.142 -5.608,-3.948 -12.456,-8.458c-6.849,-4.51 -12.684,-8.425 -12.967,-8.7c-0.284,-0.275 -0.709,-0.5 -0.944,-0.5c-0.236,0 -0.429,-0.18 -0.429,-0.4c0,-0.22 -0.27,-0.4 -0.6,-0.4c-0.33,0 -0.6,-0.18 -0.6,-0.4c0,-1.005 -1.917,-0.002 -8.8,4.604" fill="#ffe6e2" fill-rule="evenodd"/>
   <path id="path1" d="m196.749,100.757c-2.19,1.095 -93.433,61.952 -94.333,62.918c-2.523,2.708 -2.416,1.097 -2.416,36.287c0,35.15 -0.092,33.756 2.411,36.38c0.494,0.518 11.358,7.895 24.143,16.394c12.785,8.498 23.336,15.551 23.446,15.672c0.11,0.121 1.28,0.923 2.6,1.784c1.32,0.86 11.31,7.497 22.2,14.75c24.562,16.358 24.111,16.128 28.251,14.419c2.003,-0.827 93.251,-61.626 94.482,-62.954c2.573,-2.775 2.467,-1.206 2.467,-36.407c0,-34.743 0.084,-33.336 -2.163,-36.151c-0.566,-0.708 -9.293,-6.573 -68.037,-45.721c-29.777,-19.844 -28.962,-19.415 -33.051,-17.371m-5.149,43.997l0,19.507l-0.9,0.813c-1.337,1.207 -36.015,24.26 -36.491,24.257c-0.225,-0.001 -6.314,-3.946 -13.53,-8.766c-7.217,-4.821 -13.742,-9.173 -14.5,-9.671c-0.759,-0.498 -1.37,-1.128 -1.358,-1.4c0.024,-0.571 66.027,-44.668 66.479,-44.415c0.165,0.093 0.3,8.946 0.3,19.675m64.885,11.787c10.813,7.21 18.686,12.712 18.685,13.059c0,0.605 -28.463,19.733 -29.363,19.733c-0.454,0 -35.289,-23.194 -36.707,-24.441c-0.701,-0.617 -1.148,-39.111 -0.461,-39.797c0.23,-0.23 7.871,4.792 47.846,31.446m-41.229,33.318c8.07,5.423 14.59,10.058 14.489,10.3c-0.266,0.638 -29.036,19.853 -29.715,19.847c-0.963,-0.01 -29.597,-19.36 -29.604,-20.006c-0.003,-0.346 4.852,-3.81 11.484,-8.193c6.32,-4.176 11.58,-7.694 11.69,-7.817c0.601,-0.676 5.89,-3.967 6.392,-3.978c0.325,-0.006 7.194,4.425 15.264,9.847m-96.347,-3.059c0.56,0.44 1.09,0.8 1.179,0.8c0.463,0 18.112,12.072 18.112,12.389c0,0.421 -19.983,14.011 -20.602,14.011c-0.256,0 -0.398,-4.975 -0.398,-14c0,-7.7 0.156,-14 0.346,-14c0.19,0 0.804,0.36 1.363,0.8m163.891,13.2c0,7.7 -0.119,14 -0.263,14c-0.754,0 -20.52,-13.485 -20.521,-14c-0.001,-0.514 19.614,-13.893 20.484,-13.973c0.165,-0.015 0.3,6.273 0.3,13.973m-109.6,23.103c9.35,6.26 17.315,11.661 17.7,12.002c0.74,0.655 1.13,39.406 0.4,39.816c-0.165,0.093 -7.23,-4.482 -15.7,-10.167c-8.47,-5.685 -15.674,-10.476 -16.008,-10.645c-0.742,-0.377 -5.313,-3.397 -5.592,-3.695c-0.11,-0.118 -6.72,-4.534 -14.69,-9.814c-7.969,-5.28 -14.494,-9.816 -14.5,-10.081c-0.005,-0.264 6.596,-4.896 14.67,-10.293c14.611,-9.768 14.684,-9.811 15.7,-9.16c0.561,0.36 8.67,5.776 18.02,12.037m87.8,-2.59c7.7,5.156 14.049,9.625 14.108,9.931c0.117,0.601 -65.879,44.821 -66.407,44.495c-0.166,-0.103 -0.301,-8.986 -0.301,-19.742l0,-19.556l1.3,-0.969c7.039,-5.248 36.104,-24.19 36.654,-23.888c0.355,0.195 6.946,4.573 14.646,9.729" fill="#fd907e" fill-rule="evenodd"/>
  </g>
 </g>

</svg>