<svg width="32" height="32" xmlns="http://www.w3.org/2000/svg">
 <g>
  <title>background</title>
  <rect x="-1" y="-1" width="3.999999" height="3.999999" id="canvas_background" fill="none"/>
 </g>

 <g>
  <title>Layer 1</title>
  <path d="m26,32l-20,0c-3.314,0 -6,-2.686 -6,-6l0,-20c0,-3.314 2.686,-6 6,-6l20,0c3.314,0 6,2.686 6,6l0,20c0,3.314 -2.686,6 -6,6z" fill="#ffe6e2" id="svg_1"/>
  <path stroke="null" fill="#fd907e" stroke-width="null" stroke-opacity="null" fill-opacity="null" d="m23.967274,9.718816l-15.93582,0l7.96791,5.054529l7.96791,-5.054529zm-7.496214,7.207753c-0.14641,0.093154 -0.308735,0.140087 -0.47106,0.140087s-0.32465,-0.046933 -0.471696,-0.140087l-8.12196,-5.150528l0,10.505143l17.187311,0l0,-10.505143l-8.122596,5.150528l0.000001,0z" id="svg_6"/>
  <path fill="#ffe6e2" stroke="null" stroke-width="null" stroke-opacity="null" fill-opacity="null" d="m43.020634,9.765315l-0.12517,0l0.062585,0.03554l0.062585,-0.03554zm-0.05888,0.05068c-0.00115,0.000655 -0.002425,0.000985 -0.0037,0.000985s-0.00255,-0.00033 -0.003705,-0.000985l-0.063795,-0.036215l0,0.073865l0.135,0l0,-0.073865l-0.0638,0.036215z" id="svg_7"/>
 </g>
</svg>