<svg width="700" height="704" xmlns="http://www.w3.org/2000/svg">

 <g>
  <title>background</title>
  <rect fill="none" id="canvas_background" height="706" width="702" y="-1" x="-1"/>
 </g>
 <g>
  <title>Layer 1</title>
  <g id="Logo_artwork"/>
  <g stroke="null" id="Guides_to_delete">
   <g stroke="null" id="svg_1">
    <polygon stroke="null" id="svg_2" points="74.51345103347637,630.1197509765625 13.625807762145996,5.495604038238525 682.3721373118195,5.495604038238525 621.4104128550997,630.1693115234375 347.8363228763436,699.5280151367188 " fill="#E34E26"/>
    <polygon stroke="null" id="svg_3" points="347.9989965298581,56.551658630371094 347.9989965298581,646.4718627929688 569.2170208200067,590.3895263671875 621.3365813914742,56.551658630371094 " fill="#EF662A"/>
    <polygon stroke="null" id="svg_4" points="138.20285008321923,133.16827392578125 160.78161474459455,364.8376770019531 451.11485155131857,364.8376770019531 441.3715113504976,464.2046813964844 347.89081902033547,487.3190612792969 254.58719998610547,464.2381896972656 248.34908373122641,400.43505859375 164.26704897522256,400.43505859375 176.29031166707944,523.4285278320312 347.8709509609388,567.0111694335938 519.6683683318905,523.4285278320312 542.6999931294512,288.2373046875 237.39482604910052,288.2373046875 229.72888888529167,209.7847900390625 550.0358823412633,209.7847900390625 550.2914720769721,209.7847900390625 557.7949549506983,133.16827392578125 " fill="#FFFFFF"/>
    <g stroke="null" id="svg_5">
     <polygon stroke="null" id="svg_6" points="347.9989965298581,133.16827392578125 138.20285008321923,133.16827392578125 160.78161474459455,364.8376770019531 347.9989965298581,364.8376770019531 347.9989965298581,288.2373046875 237.39482604910052,288.2373046875 229.72888888529167,209.7847900390625 347.9989965298581,209.7847900390625 " fill="#EBEBEB"/>
     <polygon stroke="null" id="svg_7" points="347.9989965298581,487.2857971191406 347.89081902033547,487.3190612792969 254.58719998610547,464.2381896972656 248.34908373122641,400.43505859375 164.26704897522256,400.43505859375 176.29031166707944,523.4285278320312 347.8709509609388,567.0111694335938 347.9989965298581,566.978271484375 " fill="#EBEBEB"/>
    </g>
   </g>
  </g>
 </g>
</svg>