<svg width="259.4" height="291.5" xmlns="http://www.w3.org/2000/svg">
 <style>.st0{fill:#d4b830}.st1,.st2{opacity:.986;fill:#ebebeb;fill-opacity:0;enable-background:new}.st2{fill-opacity:.9216}.st3{fill:#fdd83c}</style>

 <g>
  <title>background</title>
  <rect fill="none" id="canvas_background" height="293.5" width="261.4" y="-1" x="-1"/>
 </g>
 <g>
  <title>Layer 1</title>
  <g stroke="null" id="g5193">
   <path stroke="null" d="m24.066471,262.014998l-24.078471,-262l259.400001,0.1l-23.876131,261.7l-106.02621,29.6l-105.419189,-29.4zm191.91958,-14.3l20.132839,-224.4l-106.22855,0l0.80936,247.5l85.28635,-23.1zm-96.010375,-191.5l-25.798362,0l-0.30351,134.3l-50.079173,-13.5l0.10117,30.7l76.079876,20.3l0,-171.8z" class="st0" id="path5113"/>
   <path stroke="null" d="m111.477392,225.514998c-3.338612,-1 -19.829329,-5.4 -36.623557,-9.9l-30.452184,-8.1l0,-15.1c0,-14.8 0,-15.1 1.517551,-14.6c0.80936,0.3 11.938066,3.3 24.685492,6.8l23.167941,6.3l0.20234,-67l0.20234,-67l25.292512,0l0,85.2c0,67.7 -0.20234,85.2 -0.91053,85.2c-0.50585,-0.1 -3.743292,-0.9 -7.081903,-1.8z" class="st1" id="path5159"/>
   <path stroke="null" d="m43.8958,207.714998l-0.10117,-30.7s31.969735,8.9 50.079173,13.5l0.30351,-134.2l25.798362,0l0,171.7l-76.079876,-20.3z" class="st2" id="path5157"/>
   <path stroke="null" d="m129.890341,23.214998l106.22855,0l-20.132839,224.4l-86.09571,23.1l0,-247.5zm80.632528,186.8l6.980733,-83.9l-51.596724,5.7l0,-44.8l55.036506,-0.2l2.225741,-30.6l-83.060609,0.4l1.112871,111.4l50.180343,-8.5l-0.70819,24.8l-50.585024,13.3l0.50585,30.4l69.908503,-18z" class="st3" id="path5117"/>
  </g>
 </g>
</svg>